<mxfile host="app.diagrams.net" modified="2021-12-16T09:29:13.405Z" agent="5.0 (X11; Linux x86_64) AppleWebKit/537.36 (KHTML, like Gecko) Chrome/84.0.4147.89 Safari/537.36" etag="Lwlr_AcBRKjRr5xMzER5" version="15.8.2" type="github">
  <diagram name="Page-1" id="e7e014a7-5840-1c2e-5031-d8a46d1fe8dd">
    <mxGraphModel dx="1340" dy="664" grid="1" gridSize="10" guides="1" tooltips="1" connect="1" arrows="1" fold="1" page="1" pageScale="1" pageWidth="827" pageHeight="1169" background="#ffffff" math="0" shadow="0">
      <root>
        <mxCell id="0" />
        <mxCell id="1" parent="0" />
        <mxCell id="EJuun3mlQRxhY7gNAN2d-12" style="edgeStyle=none;rounded=0;orthogonalLoop=1;jettySize=auto;html=1;entryX=0.5;entryY=0;entryDx=0;entryDy=0;" parent="1" source="FB7n5PxvgqieLS6MJgnv-41" target="FB7n5PxvgqieLS6MJgnv-43" edge="1">
          <mxGeometry relative="1" as="geometry">
            <Array as="points">
              <mxPoint x="585" y="80" />
              <mxPoint x="665" y="80" />
            </Array>
          </mxGeometry>
        </mxCell>
        <mxCell id="EJuun3mlQRxhY7gNAN2d-13" value="发布" style="edgeLabel;html=1;align=center;verticalAlign=middle;resizable=0;points=[];" parent="EJuun3mlQRxhY7gNAN2d-12" vertex="1" connectable="0">
          <mxGeometry x="-0.3063" y="-3" relative="1" as="geometry">
            <mxPoint as="offset" />
          </mxGeometry>
        </mxCell>
        <mxCell id="FB7n5PxvgqieLS6MJgnv-41" value="云管" style="ellipse;whiteSpace=wrap;html=1;aspect=fixed;fillColor=#dae8fc;strokeColor=#6c8ebf;" parent="1" vertex="1">
          <mxGeometry x="20" y="40" width="80" height="80" as="geometry" />
        </mxCell>
        <mxCell id="FB7n5PxvgqieLS6MJgnv-43" value="ProxyUpdate" style="rounded=0;whiteSpace=wrap;html=1;fillColor=#bac8d3;strokeColor=#23445d;" parent="1" vertex="1">
          <mxGeometry x="605" y="130" width="120" height="60" as="geometry" />
        </mxCell>
        <mxCell id="EJuun3mlQRxhY7gNAN2d-9" style="edgeStyle=none;rounded=0;orthogonalLoop=1;jettySize=auto;html=1;exitX=0.5;exitY=0;exitDx=0;exitDy=0;entryX=0.5;entryY=1;entryDx=0;entryDy=0;" parent="1" source="FB7n5PxvgqieLS6MJgnv-45" edge="1">
          <mxGeometry relative="1" as="geometry">
            <mxPoint x="665" y="190" as="targetPoint" />
          </mxGeometry>
        </mxCell>
        <mxCell id="rX8UmJ0MvaBs6cS46ier-11" value="获取" style="edgeLabel;html=1;align=center;verticalAlign=middle;resizable=0;points=[];" parent="EJuun3mlQRxhY7gNAN2d-9" vertex="1" connectable="0">
          <mxGeometry x="-0.3005" relative="1" as="geometry">
            <mxPoint y="-3" as="offset" />
          </mxGeometry>
        </mxCell>
        <mxCell id="xDake7foOGyNzTxmRu00-2" style="edgeStyle=orthogonalEdgeStyle;rounded=0;orthogonalLoop=1;jettySize=auto;html=1;" edge="1" parent="1" source="FB7n5PxvgqieLS6MJgnv-45" target="xDake7foOGyNzTxmRu00-1">
          <mxGeometry relative="1" as="geometry" />
        </mxCell>
        <mxCell id="FB7n5PxvgqieLS6MJgnv-45" value="asmc" style="ellipse;whiteSpace=wrap;html=1;aspect=fixed;fillColor=#d5e8d4;gradientColor=#97d077;strokeColor=#82b366;" parent="1" vertex="1">
          <mxGeometry x="625" y="261" width="80" height="80" as="geometry" />
        </mxCell>
        <mxCell id="xDake7foOGyNzTxmRu00-4" style="edgeStyle=orthogonalEdgeStyle;rounded=0;orthogonalLoop=1;jettySize=auto;html=1;entryX=0.5;entryY=0;entryDx=0;entryDy=0;entryPerimeter=0;fontSize=12;" edge="1" parent="1" source="xDake7foOGyNzTxmRu00-1" target="xDake7foOGyNzTxmRu00-3">
          <mxGeometry relative="1" as="geometry" />
        </mxCell>
        <mxCell id="xDake7foOGyNzTxmRu00-1" value="&lt;font style=&quot;font-size: 12px&quot;&gt;查找对应labels的&lt;span style=&quot;background-color: rgb(255 , 255 , 255) ; font-family: &amp;#34;jetbrains mono&amp;#34; , monospace&quot;&gt;workloadEntry，把ip记录在状态中，只更新这些当前找到的虚机代理&lt;/span&gt;&lt;/font&gt;" style="rounded=0;whiteSpace=wrap;html=1;" vertex="1" parent="1">
          <mxGeometry x="552.49" y="400" width="224.99" height="60" as="geometry" />
        </mxCell>
        <mxCell id="xDake7foOGyNzTxmRu00-7" style="edgeStyle=orthogonalEdgeStyle;rounded=0;orthogonalLoop=1;jettySize=auto;html=1;fontSize=12;" edge="1" parent="1" source="xDake7foOGyNzTxmRu00-3" target="xDake7foOGyNzTxmRu00-6">
          <mxGeometry relative="1" as="geometry" />
        </mxCell>
        <mxCell id="xDake7foOGyNzTxmRu00-8" value="否" style="edgeLabel;html=1;align=center;verticalAlign=middle;resizable=0;points=[];fontSize=12;" vertex="1" connectable="0" parent="xDake7foOGyNzTxmRu00-7">
          <mxGeometry x="0.2138" y="-3" relative="1" as="geometry">
            <mxPoint as="offset" />
          </mxGeometry>
        </mxCell>
        <mxCell id="xDake7foOGyNzTxmRu00-10" style="edgeStyle=orthogonalEdgeStyle;rounded=0;orthogonalLoop=1;jettySize=auto;html=1;entryX=0;entryY=0.5;entryDx=0;entryDy=0;fontSize=12;" edge="1" parent="1" source="xDake7foOGyNzTxmRu00-3" target="xDake7foOGyNzTxmRu00-9">
          <mxGeometry relative="1" as="geometry" />
        </mxCell>
        <mxCell id="xDake7foOGyNzTxmRu00-11" value="是" style="edgeLabel;html=1;align=center;verticalAlign=middle;resizable=0;points=[];fontSize=12;" vertex="1" connectable="0" parent="xDake7foOGyNzTxmRu00-10">
          <mxGeometry x="-0.2737" y="-1" relative="1" as="geometry">
            <mxPoint as="offset" />
          </mxGeometry>
        </mxCell>
        <mxCell id="xDake7foOGyNzTxmRu00-3" value="&lt;div style=&quot;text-align: left&quot;&gt;&lt;span&gt;是否生成envoyfilter&lt;/span&gt;&lt;/div&gt;" style="strokeWidth=2;html=1;shape=mxgraph.flowchart.decision;whiteSpace=wrap;" vertex="1" parent="1">
          <mxGeometry x="589.99" y="535" width="150" height="100" as="geometry" />
        </mxCell>
        <mxCell id="xDake7foOGyNzTxmRu00-20" style="edgeStyle=orthogonalEdgeStyle;rounded=0;orthogonalLoop=1;jettySize=auto;html=1;fontSize=12;" edge="1" parent="1" source="xDake7foOGyNzTxmRu00-6" target="xDake7foOGyNzTxmRu00-19">
          <mxGeometry relative="1" as="geometry" />
        </mxCell>
        <mxCell id="xDake7foOGyNzTxmRu00-6" value="云管根据找到的ip，分别发更新请求到虚机的agent" style="rounded=0;whiteSpace=wrap;html=1;" vertex="1" parent="1">
          <mxGeometry x="579.74" y="700" width="170.49" height="60" as="geometry" />
        </mxCell>
        <mxCell id="xDake7foOGyNzTxmRu00-13" style="edgeStyle=orthogonalEdgeStyle;rounded=0;orthogonalLoop=1;jettySize=auto;html=1;fontSize=12;" edge="1" parent="1" source="xDake7foOGyNzTxmRu00-9" target="xDake7foOGyNzTxmRu00-12">
          <mxGeometry relative="1" as="geometry" />
        </mxCell>
        <mxCell id="xDake7foOGyNzTxmRu00-9" value="虚机代理收到更新的envoyfilter" style="rounded=0;whiteSpace=wrap;html=1;" vertex="1" parent="1">
          <mxGeometry x="891.24" y="555" width="170.49" height="60" as="geometry" />
        </mxCell>
        <mxCell id="xDake7foOGyNzTxmRu00-15" style="edgeStyle=orthogonalEdgeStyle;rounded=0;orthogonalLoop=1;jettySize=auto;html=1;fontSize=12;" edge="1" parent="1" source="xDake7foOGyNzTxmRu00-12" target="xDake7foOGyNzTxmRu00-19">
          <mxGeometry relative="1" as="geometry">
            <mxPoint x="748.2399999999998" y="870" as="targetPoint" />
          </mxGeometry>
        </mxCell>
        <mxCell id="xDake7foOGyNzTxmRu00-16" value="是" style="edgeLabel;html=1;align=center;verticalAlign=middle;resizable=0;points=[];fontSize=12;" vertex="1" connectable="0" parent="xDake7foOGyNzTxmRu00-15">
          <mxGeometry x="-0.2118" y="-2" relative="1" as="geometry">
            <mxPoint as="offset" />
          </mxGeometry>
        </mxCell>
        <mxCell id="xDake7foOGyNzTxmRu00-95" style="edgeStyle=orthogonalEdgeStyle;rounded=0;orthogonalLoop=1;jettySize=auto;html=1;entryX=1;entryY=0.5;entryDx=0;entryDy=0;entryPerimeter=0;fontSize=12;exitX=0.5;exitY=1;exitDx=0;exitDy=0;exitPerimeter=0;" edge="1" parent="1" source="xDake7foOGyNzTxmRu00-12" target="xDake7foOGyNzTxmRu00-25">
          <mxGeometry relative="1" as="geometry">
            <Array as="points">
              <mxPoint x="977" y="988" />
            </Array>
          </mxGeometry>
        </mxCell>
        <mxCell id="xDake7foOGyNzTxmRu00-96" value="否" style="edgeLabel;html=1;align=center;verticalAlign=middle;resizable=0;points=[];fontSize=12;" vertex="1" connectable="0" parent="xDake7foOGyNzTxmRu00-95">
          <mxGeometry x="-0.0839" y="2" relative="1" as="geometry">
            <mxPoint x="1" as="offset" />
          </mxGeometry>
        </mxCell>
        <mxCell id="xDake7foOGyNzTxmRu00-12" value="是否由本地agent处理" style="strokeWidth=2;html=1;shape=mxgraph.flowchart.decision;whiteSpace=wrap;" vertex="1" parent="1">
          <mxGeometry x="901.48" y="820" width="150" height="100" as="geometry" />
        </mxCell>
        <mxCell id="xDake7foOGyNzTxmRu00-28" style="edgeStyle=orthogonalEdgeStyle;rounded=0;orthogonalLoop=1;jettySize=auto;html=1;entryX=0.5;entryY=0;entryDx=0;entryDy=0;entryPerimeter=0;fontSize=12;" edge="1" parent="1" source="xDake7foOGyNzTxmRu00-19" target="xDake7foOGyNzTxmRu00-25">
          <mxGeometry relative="1" as="geometry" />
        </mxCell>
        <mxCell id="xDake7foOGyNzTxmRu00-19" value="Agent" style="ellipse;whiteSpace=wrap;html=1;aspect=fixed;fillColor=#e1d5e7;strokeColor=#9673a6;" vertex="1" parent="1">
          <mxGeometry x="624.26" y="830" width="80" height="80" as="geometry" />
        </mxCell>
        <mxCell id="xDake7foOGyNzTxmRu00-21" style="rounded=0;orthogonalLoop=1;jettySize=auto;html=1;entryX=1;entryY=0.5;entryDx=0;entryDy=0;" edge="1" parent="1" source="xDake7foOGyNzTxmRu00-25" target="xDake7foOGyNzTxmRu00-27">
          <mxGeometry relative="1" as="geometry">
            <mxPoint x="437.4999999999998" y="988" as="targetPoint" />
          </mxGeometry>
        </mxCell>
        <mxCell id="xDake7foOGyNzTxmRu00-22" value="Rollback" style="edgeLabel;html=1;align=center;verticalAlign=middle;resizable=0;points=[];" vertex="1" connectable="0" parent="xDake7foOGyNzTxmRu00-21">
          <mxGeometry x="0.2093" y="1" relative="1" as="geometry">
            <mxPoint x="24" y="-1" as="offset" />
          </mxGeometry>
        </mxCell>
        <mxCell id="xDake7foOGyNzTxmRu00-23" style="edgeStyle=orthogonalEdgeStyle;rounded=0;orthogonalLoop=1;jettySize=auto;html=1;entryX=0.5;entryY=0;entryDx=0;entryDy=0;" edge="1" parent="1" source="xDake7foOGyNzTxmRu00-25" target="xDake7foOGyNzTxmRu00-26">
          <mxGeometry relative="1" as="geometry">
            <mxPoint x="662.4999999999998" y="1120" as="targetPoint" />
          </mxGeometry>
        </mxCell>
        <mxCell id="xDake7foOGyNzTxmRu00-24" value="Update" style="edgeLabel;html=1;align=center;verticalAlign=middle;resizable=0;points=[];" vertex="1" connectable="0" parent="xDake7foOGyNzTxmRu00-23">
          <mxGeometry x="-0.1918" y="-3" relative="1" as="geometry">
            <mxPoint as="offset" />
          </mxGeometry>
        </mxCell>
        <mxCell id="xDake7foOGyNzTxmRu00-25" value="&lt;span style=&quot;text-align: left&quot;&gt;任务类型&lt;/span&gt;" style="strokeWidth=2;html=1;shape=mxgraph.flowchart.decision;whiteSpace=wrap;" vertex="1" parent="1">
          <mxGeometry x="609.5" y="970" width="110" height="36" as="geometry" />
        </mxCell>
        <mxCell id="xDake7foOGyNzTxmRu00-30" style="edgeStyle=orthogonalEdgeStyle;rounded=0;orthogonalLoop=1;jettySize=auto;html=1;fontSize=12;" edge="1" parent="1" source="xDake7foOGyNzTxmRu00-26" target="xDake7foOGyNzTxmRu00-29">
          <mxGeometry relative="1" as="geometry" />
        </mxCell>
        <mxCell id="xDake7foOGyNzTxmRu00-26" value="更新" style="rounded=0;whiteSpace=wrap;html=1;fillColor=#d5e8d4;gradientColor=#97d077;strokeColor=#82b366;" vertex="1" parent="1">
          <mxGeometry x="612" y="1070" width="105" height="32" as="geometry" />
        </mxCell>
        <mxCell id="xDake7foOGyNzTxmRu00-60" style="edgeStyle=orthogonalEdgeStyle;rounded=0;orthogonalLoop=1;jettySize=auto;html=1;fontSize=12;" edge="1" parent="1" source="xDake7foOGyNzTxmRu00-27" target="xDake7foOGyNzTxmRu00-52">
          <mxGeometry relative="1" as="geometry" />
        </mxCell>
        <mxCell id="xDake7foOGyNzTxmRu00-27" value="回滚" style="rounded=0;whiteSpace=wrap;html=1;fillColor=#b1ddf0;strokeColor=#10739e;" vertex="1" parent="1">
          <mxGeometry x="329" y="972" width="105" height="32" as="geometry" />
        </mxCell>
        <mxCell id="xDake7foOGyNzTxmRu00-35" value="是" style="edgeStyle=orthogonalEdgeStyle;rounded=0;orthogonalLoop=1;jettySize=auto;html=1;entryX=0;entryY=0.5;entryDx=0;entryDy=0;fontSize=12;" edge="1" parent="1" source="xDake7foOGyNzTxmRu00-29" target="xDake7foOGyNzTxmRu00-34">
          <mxGeometry relative="1" as="geometry" />
        </mxCell>
        <mxCell id="xDake7foOGyNzTxmRu00-50" style="edgeStyle=orthogonalEdgeStyle;rounded=0;orthogonalLoop=1;jettySize=auto;html=1;entryX=0.5;entryY=0;entryDx=0;entryDy=0;fontSize=12;" edge="1" parent="1" source="xDake7foOGyNzTxmRu00-29" target="xDake7foOGyNzTxmRu00-39">
          <mxGeometry relative="1" as="geometry" />
        </mxCell>
        <mxCell id="xDake7foOGyNzTxmRu00-51" value="否" style="edgeLabel;html=1;align=center;verticalAlign=middle;resizable=0;points=[];fontSize=12;" vertex="1" connectable="0" parent="xDake7foOGyNzTxmRu00-50">
          <mxGeometry x="-0.1811" y="4" relative="1" as="geometry">
            <mxPoint as="offset" />
          </mxGeometry>
        </mxCell>
        <mxCell id="xDake7foOGyNzTxmRu00-29" value="&lt;span style=&quot;text-align: left&quot;&gt;当前版本和要更新的版本一致&lt;/span&gt;" style="strokeWidth=2;html=1;shape=mxgraph.flowchart.decision;whiteSpace=wrap;" vertex="1" parent="1">
          <mxGeometry x="589.5" y="1170" width="150" height="60" as="geometry" />
        </mxCell>
        <mxCell id="xDake7foOGyNzTxmRu00-31" style="edgeStyle=orthogonalEdgeStyle;rounded=0;orthogonalLoop=1;jettySize=auto;html=1;" edge="1" parent="1" source="xDake7foOGyNzTxmRu00-32" target="xDake7foOGyNzTxmRu00-33">
          <mxGeometry relative="1" as="geometry" />
        </mxCell>
        <mxCell id="xDake7foOGyNzTxmRu00-32" value="结束任务" style="whiteSpace=wrap;html=1;" vertex="1" parent="1">
          <mxGeometry x="948.4300000000001" y="1180" width="90" height="40" as="geometry" />
        </mxCell>
        <mxCell id="xDake7foOGyNzTxmRu00-33" value="" style="ellipse;html=1;shape=endState;fillColor=#000000;strokeColor=#ff0000;" vertex="1" parent="1">
          <mxGeometry x="978.4300000000001" y="1300" width="30" height="30" as="geometry" />
        </mxCell>
        <mxCell id="xDake7foOGyNzTxmRu00-36" style="edgeStyle=orthogonalEdgeStyle;rounded=0;orthogonalLoop=1;jettySize=auto;html=1;entryX=0;entryY=0.5;entryDx=0;entryDy=0;fontSize=12;" edge="1" parent="1" source="xDake7foOGyNzTxmRu00-34" target="xDake7foOGyNzTxmRu00-32">
          <mxGeometry relative="1" as="geometry" />
        </mxCell>
        <mxCell id="xDake7foOGyNzTxmRu00-34" value="响应更新成功" style="whiteSpace=wrap;html=1;" vertex="1" parent="1">
          <mxGeometry x="804.07" y="1179.5" width="90" height="40" as="geometry" />
        </mxCell>
        <mxCell id="xDake7foOGyNzTxmRu00-45" style="edgeStyle=orthogonalEdgeStyle;rounded=0;orthogonalLoop=1;jettySize=auto;html=1;fontSize=12;" edge="1" parent="1" source="xDake7foOGyNzTxmRu00-39" target="xDake7foOGyNzTxmRu00-40">
          <mxGeometry relative="1" as="geometry" />
        </mxCell>
        <mxCell id="xDake7foOGyNzTxmRu00-39" value="记录更新事件" style="whiteSpace=wrap;html=1;" vertex="1" parent="1">
          <mxGeometry x="619.61" y="1286" width="90" height="40" as="geometry" />
        </mxCell>
        <mxCell id="xDake7foOGyNzTxmRu00-46" style="edgeStyle=orthogonalEdgeStyle;rounded=0;orthogonalLoop=1;jettySize=auto;html=1;entryX=0.5;entryY=0;entryDx=0;entryDy=0;fontSize=12;" edge="1" parent="1" source="xDake7foOGyNzTxmRu00-40" target="xDake7foOGyNzTxmRu00-41">
          <mxGeometry relative="1" as="geometry" />
        </mxCell>
        <mxCell id="xDake7foOGyNzTxmRu00-40" value="下载新版本代理" style="whiteSpace=wrap;html=1;" vertex="1" parent="1">
          <mxGeometry x="619.63" y="1378" width="90" height="40" as="geometry" />
        </mxCell>
        <mxCell id="xDake7foOGyNzTxmRu00-47" style="edgeStyle=orthogonalEdgeStyle;rounded=0;orthogonalLoop=1;jettySize=auto;html=1;fontSize=12;" edge="1" parent="1" source="xDake7foOGyNzTxmRu00-41" target="xDake7foOGyNzTxmRu00-42">
          <mxGeometry relative="1" as="geometry" />
        </mxCell>
        <mxCell id="xDake7foOGyNzTxmRu00-41" value="备份现版本代理" style="whiteSpace=wrap;html=1;" vertex="1" parent="1">
          <mxGeometry x="619.62" y="1466" width="90" height="40" as="geometry" />
        </mxCell>
        <mxCell id="xDake7foOGyNzTxmRu00-97" style="edgeStyle=orthogonalEdgeStyle;rounded=0;orthogonalLoop=1;jettySize=auto;html=1;fontSize=12;" edge="1" parent="1" source="xDake7foOGyNzTxmRu00-42" target="xDake7foOGyNzTxmRu00-62">
          <mxGeometry relative="1" as="geometry" />
        </mxCell>
        <mxCell id="xDake7foOGyNzTxmRu00-42" value="将新版本代理重命名为当前程序文件名" style="whiteSpace=wrap;html=1;" vertex="1" parent="1">
          <mxGeometry x="618.88" y="1546" width="90" height="40" as="geometry" />
        </mxCell>
        <mxCell id="xDake7foOGyNzTxmRu00-58" style="edgeStyle=orthogonalEdgeStyle;rounded=0;orthogonalLoop=1;jettySize=auto;html=1;entryX=1;entryY=0.5;entryDx=0;entryDy=0;fontSize=12;" edge="1" parent="1" source="xDake7foOGyNzTxmRu00-52" target="xDake7foOGyNzTxmRu00-54">
          <mxGeometry relative="1" as="geometry" />
        </mxCell>
        <mxCell id="xDake7foOGyNzTxmRu00-61" value="是" style="edgeLabel;html=1;align=center;verticalAlign=middle;resizable=0;points=[];fontSize=12;" vertex="1" connectable="0" parent="xDake7foOGyNzTxmRu00-58">
          <mxGeometry x="0.2869" y="1" relative="1" as="geometry">
            <mxPoint as="offset" />
          </mxGeometry>
        </mxCell>
        <mxCell id="xDake7foOGyNzTxmRu00-86" style="edgeStyle=orthogonalEdgeStyle;rounded=0;orthogonalLoop=1;jettySize=auto;html=1;fontSize=12;" edge="1" parent="1" source="xDake7foOGyNzTxmRu00-52" target="xDake7foOGyNzTxmRu00-78">
          <mxGeometry relative="1" as="geometry" />
        </mxCell>
        <mxCell id="xDake7foOGyNzTxmRu00-52" value="&lt;span style=&quot;text-align: left&quot;&gt;当前版本和要更新记录的旧版本一致&lt;/span&gt;" style="strokeWidth=2;html=1;shape=mxgraph.flowchart.decision;whiteSpace=wrap;" vertex="1" parent="1">
          <mxGeometry x="319.75" y="1060" width="123.5" height="80" as="geometry" />
        </mxCell>
        <mxCell id="xDake7foOGyNzTxmRu00-59" style="edgeStyle=orthogonalEdgeStyle;rounded=0;orthogonalLoop=1;jettySize=auto;html=1;fontSize=12;" edge="1" parent="1" source="xDake7foOGyNzTxmRu00-54" target="xDake7foOGyNzTxmRu00-55">
          <mxGeometry relative="1" as="geometry" />
        </mxCell>
        <mxCell id="xDake7foOGyNzTxmRu00-54" value="响应回滚成功" style="whiteSpace=wrap;html=1;" vertex="1" parent="1">
          <mxGeometry x="140" y="1080" width="90" height="40" as="geometry" />
        </mxCell>
        <mxCell id="xDake7foOGyNzTxmRu00-55" value="结束任务" style="whiteSpace=wrap;html=1;" vertex="1" parent="1">
          <mxGeometry x="140" y="1180" width="90" height="40" as="geometry" />
        </mxCell>
        <mxCell id="xDake7foOGyNzTxmRu00-56" style="edgeStyle=orthogonalEdgeStyle;rounded=0;orthogonalLoop=1;jettySize=auto;html=1;" edge="1" parent="1" target="xDake7foOGyNzTxmRu00-57" source="xDake7foOGyNzTxmRu00-55">
          <mxGeometry relative="1" as="geometry">
            <mxPoint x="185.00000000000023" y="1251" as="sourcePoint" />
          </mxGeometry>
        </mxCell>
        <mxCell id="xDake7foOGyNzTxmRu00-57" value="" style="ellipse;html=1;shape=endState;fillColor=#000000;strokeColor=#ff0000;" vertex="1" parent="1">
          <mxGeometry x="170" y="1280" width="30" height="30" as="geometry" />
        </mxCell>
        <mxCell id="xDake7foOGyNzTxmRu00-74" style="edgeStyle=orthogonalEdgeStyle;rounded=0;orthogonalLoop=1;jettySize=auto;html=1;entryX=1;entryY=0.5;entryDx=0;entryDy=0;fontSize=12;" edge="1" parent="1" source="xDake7foOGyNzTxmRu00-62" target="xDake7foOGyNzTxmRu00-73">
          <mxGeometry relative="1" as="geometry" />
        </mxCell>
        <mxCell id="xDake7foOGyNzTxmRu00-75" value="否" style="edgeLabel;html=1;align=center;verticalAlign=middle;resizable=0;points=[];fontSize=12;" vertex="1" connectable="0" parent="xDake7foOGyNzTxmRu00-74">
          <mxGeometry x="-0.2463" y="2" relative="1" as="geometry">
            <mxPoint as="offset" />
          </mxGeometry>
        </mxCell>
        <mxCell id="xDake7foOGyNzTxmRu00-62" value="&lt;div style=&quot;text-align: left&quot;&gt;&lt;span style=&quot;text-align: center&quot;&gt;等待新版本重启成功&lt;/span&gt;&lt;br&gt;&lt;/div&gt;" style="strokeWidth=2;html=1;shape=mxgraph.flowchart.decision;whiteSpace=wrap;" vertex="1" parent="1">
          <mxGeometry x="595.45" y="1630" width="137.61" height="70" as="geometry" />
        </mxCell>
        <mxCell id="xDake7foOGyNzTxmRu00-63" value="是" style="edgeStyle=orthogonalEdgeStyle;rounded=0;orthogonalLoop=1;jettySize=auto;html=1;entryX=0.5;entryY=0;entryDx=0;entryDy=0;fontSize=12;exitX=0.5;exitY=1;exitDx=0;exitDy=0;exitPerimeter=0;" edge="1" parent="1" target="xDake7foOGyNzTxmRu00-68" source="xDake7foOGyNzTxmRu00-62">
          <mxGeometry relative="1" as="geometry">
            <mxPoint x="553.43" y="1760.5" as="sourcePoint" />
          </mxGeometry>
        </mxCell>
        <mxCell id="xDake7foOGyNzTxmRu00-64" style="edgeStyle=orthogonalEdgeStyle;rounded=0;orthogonalLoop=1;jettySize=auto;html=1;" edge="1" parent="1" source="xDake7foOGyNzTxmRu00-65" target="xDake7foOGyNzTxmRu00-66">
          <mxGeometry relative="1" as="geometry" />
        </mxCell>
        <mxCell id="xDake7foOGyNzTxmRu00-65" value="结束任务" style="whiteSpace=wrap;html=1;" vertex="1" parent="1">
          <mxGeometry x="617.88" y="1834.5" width="90" height="40" as="geometry" />
        </mxCell>
        <mxCell id="xDake7foOGyNzTxmRu00-66" value="" style="ellipse;html=1;shape=endState;fillColor=#000000;strokeColor=#ff0000;" vertex="1" parent="1">
          <mxGeometry x="648.26" y="1900" width="30" height="30" as="geometry" />
        </mxCell>
        <mxCell id="xDake7foOGyNzTxmRu00-67" style="edgeStyle=orthogonalEdgeStyle;rounded=0;orthogonalLoop=1;jettySize=auto;html=1;entryX=0.5;entryY=0;entryDx=0;entryDy=0;fontSize=12;" edge="1" parent="1" source="xDake7foOGyNzTxmRu00-68" target="xDake7foOGyNzTxmRu00-65">
          <mxGeometry relative="1" as="geometry" />
        </mxCell>
        <mxCell id="xDake7foOGyNzTxmRu00-68" value="响应更新成功" style="whiteSpace=wrap;html=1;" vertex="1" parent="1">
          <mxGeometry x="617.88" y="1754" width="90" height="40" as="geometry" />
        </mxCell>
        <mxCell id="xDake7foOGyNzTxmRu00-77" style="edgeStyle=orthogonalEdgeStyle;rounded=0;orthogonalLoop=1;jettySize=auto;html=1;fontSize=12;" edge="1" parent="1" source="xDake7foOGyNzTxmRu00-73" target="xDake7foOGyNzTxmRu00-76">
          <mxGeometry relative="1" as="geometry" />
        </mxCell>
        <mxCell id="xDake7foOGyNzTxmRu00-73" value="响应更新失败" style="whiteSpace=wrap;html=1;" vertex="1" parent="1">
          <mxGeometry x="451" y="1645" width="90" height="40" as="geometry" />
        </mxCell>
        <mxCell id="xDake7foOGyNzTxmRu00-76" value="" style="ellipse;whiteSpace=wrap;html=1;aspect=fixed;fillColor=#f0a30a;fontColor=#000000;strokeColor=#BD7000;" vertex="1" parent="1">
          <mxGeometry x="485" y="1743" width="22" height="22" as="geometry" />
        </mxCell>
        <mxCell id="xDake7foOGyNzTxmRu00-87" style="edgeStyle=orthogonalEdgeStyle;rounded=0;orthogonalLoop=1;jettySize=auto;html=1;entryX=0.5;entryY=0;entryDx=0;entryDy=0;fontSize=12;" edge="1" parent="1" source="xDake7foOGyNzTxmRu00-78" target="xDake7foOGyNzTxmRu00-79">
          <mxGeometry relative="1" as="geometry" />
        </mxCell>
        <mxCell id="xDake7foOGyNzTxmRu00-78" value="备份当前新版本" style="whiteSpace=wrap;html=1;" vertex="1" parent="1">
          <mxGeometry x="336.5" y="1180" width="90" height="40" as="geometry" />
        </mxCell>
        <mxCell id="xDake7foOGyNzTxmRu00-88" style="edgeStyle=orthogonalEdgeStyle;rounded=0;orthogonalLoop=1;jettySize=auto;html=1;entryX=0.5;entryY=0;entryDx=0;entryDy=0;entryPerimeter=0;fontSize=12;" edge="1" parent="1" source="xDake7foOGyNzTxmRu00-79" target="xDake7foOGyNzTxmRu00-80">
          <mxGeometry relative="1" as="geometry" />
        </mxCell>
        <mxCell id="xDake7foOGyNzTxmRu00-79" value="将之前备份的旧版本还原文件名" style="whiteSpace=wrap;html=1;" vertex="1" parent="1">
          <mxGeometry x="336.5" y="1275" width="90" height="40" as="geometry" />
        </mxCell>
        <mxCell id="xDake7foOGyNzTxmRu00-85" style="edgeStyle=orthogonalEdgeStyle;rounded=0;orthogonalLoop=1;jettySize=auto;html=1;entryX=1;entryY=0.5;entryDx=0;entryDy=0;fontSize=12;" edge="1" parent="1" source="xDake7foOGyNzTxmRu00-80" target="xDake7foOGyNzTxmRu00-83">
          <mxGeometry relative="1" as="geometry" />
        </mxCell>
        <mxCell id="xDake7foOGyNzTxmRu00-80" value="&lt;div style=&quot;text-align: left&quot;&gt;&lt;span style=&quot;text-align: center&quot;&gt;等待旧版本重启成功&lt;/span&gt;&lt;br&gt;&lt;/div&gt;" style="strokeWidth=2;html=1;shape=mxgraph.flowchart.decision;whiteSpace=wrap;" vertex="1" parent="1">
          <mxGeometry x="312.69" y="1370" width="137.61" height="70" as="geometry" />
        </mxCell>
        <mxCell id="xDake7foOGyNzTxmRu00-81" value="否" style="edgeLabel;html=1;align=center;verticalAlign=middle;resizable=0;points=[];fontSize=12;" vertex="1" connectable="0" parent="1">
          <mxGeometry x="282.45000000000005" y="1408" as="geometry" />
        </mxCell>
        <mxCell id="xDake7foOGyNzTxmRu00-82" style="edgeStyle=orthogonalEdgeStyle;rounded=0;orthogonalLoop=1;jettySize=auto;html=1;fontSize=12;" edge="1" parent="1" source="xDake7foOGyNzTxmRu00-83" target="xDake7foOGyNzTxmRu00-84">
          <mxGeometry relative="1" as="geometry" />
        </mxCell>
        <mxCell id="xDake7foOGyNzTxmRu00-83" value="响应更新失败" style="whiteSpace=wrap;html=1;" vertex="1" parent="1">
          <mxGeometry x="160" y="1386" width="90" height="40" as="geometry" />
        </mxCell>
        <mxCell id="xDake7foOGyNzTxmRu00-84" value="" style="ellipse;whiteSpace=wrap;html=1;aspect=fixed;fillColor=#f0a30a;fontColor=#000000;strokeColor=#BD7000;" vertex="1" parent="1">
          <mxGeometry x="194" y="1484" width="22" height="22" as="geometry" />
        </mxCell>
        <mxCell id="xDake7foOGyNzTxmRu00-89" value="是" style="edgeStyle=orthogonalEdgeStyle;rounded=0;orthogonalLoop=1;jettySize=auto;html=1;entryX=0.5;entryY=0;entryDx=0;entryDy=0;fontSize=12;exitX=0.5;exitY=1;exitDx=0;exitDy=0;exitPerimeter=0;" edge="1" parent="1" target="xDake7foOGyNzTxmRu00-94">
          <mxGeometry relative="1" as="geometry">
            <mxPoint x="381.8750000000001" y="1440" as="sourcePoint" />
          </mxGeometry>
        </mxCell>
        <mxCell id="xDake7foOGyNzTxmRu00-90" style="edgeStyle=orthogonalEdgeStyle;rounded=0;orthogonalLoop=1;jettySize=auto;html=1;" edge="1" parent="1" source="xDake7foOGyNzTxmRu00-91" target="xDake7foOGyNzTxmRu00-92">
          <mxGeometry relative="1" as="geometry" />
        </mxCell>
        <mxCell id="xDake7foOGyNzTxmRu00-91" value="结束任务" style="whiteSpace=wrap;html=1;" vertex="1" parent="1">
          <mxGeometry x="336.5" y="1574.5" width="90" height="40" as="geometry" />
        </mxCell>
        <mxCell id="xDake7foOGyNzTxmRu00-92" value="" style="ellipse;html=1;shape=endState;fillColor=#000000;strokeColor=#ff0000;" vertex="1" parent="1">
          <mxGeometry x="366.88" y="1640" width="30" height="30" as="geometry" />
        </mxCell>
        <mxCell id="xDake7foOGyNzTxmRu00-93" style="edgeStyle=orthogonalEdgeStyle;rounded=0;orthogonalLoop=1;jettySize=auto;html=1;entryX=0.5;entryY=0;entryDx=0;entryDy=0;fontSize=12;" edge="1" parent="1" source="xDake7foOGyNzTxmRu00-94" target="xDake7foOGyNzTxmRu00-91">
          <mxGeometry relative="1" as="geometry" />
        </mxCell>
        <mxCell id="xDake7foOGyNzTxmRu00-94" value="响应更新成功" style="whiteSpace=wrap;html=1;" vertex="1" parent="1">
          <mxGeometry x="336.5" y="1494" width="90" height="40" as="geometry" />
        </mxCell>
      </root>
    </mxGraphModel>
  </diagram>
</mxfile>
